/* XPM */
static const char *xword_xpm[] = {
/* columns rows colors chars-per-pixel */
"16 16 2 1",
"  c #000000",
". c #FFFFFF",
/* pixels */
"                ",
"    .. .. .. .. ",
"    .. .. .. .. ",
"                ",
"    .. .. ..    ",
"    .. .. ..    ",
"                ",
" .. .. .. ..    ",
" .. .. .. ..    ",
"                ",
" ..    .. .. .. ",
" ..    .. .. .. ",
"                ",
" .. .. ..    .. ",
" .. .. ..    .. ",
"                "
};
